#!OML:ASF F:\VICON\USERDATA\INSTALL\rory3\rory3.ASF
:FULLY-SPECIFIED
:DEGREES
44
root 0.4025006435195181 17.443325966370217 10.668415878449286 -3.4173502787183296 0.9329697204391961 -2.1407897059300365
lfemur 0.164660235984333 -0.2282947173711054 -20.420799115672956
ltibia 38.16858937695672
lfoot -7.822682081933465 -2.996382954438962
ltoes -10.702588649559619
rfemur -27.87085523550531 4.6524256595901 23.587831679755265
rtibia 21.062121416228088
rfoot -4.5531010486025405 -11.440021208502566
rtoes 4.700714580040279
lowerback 12.36050896995187 -0.9125736051690425 -0.6686600701625263
upperback -0.2492616579055211 -1.1356471335659861 1.9941465960799127
thorax -6.573707432861813 -0.5002034675684685 3.5090010457308027
lowerneck -17.07139528932389 -2.9004926130077853 -2.0484010426986234
upperneck 20.648677743245504 -3.600034348927059 1.0791643515917886
head 9.374103469774893 -1.7562238234104797 0.2519723162496034
lclavicle 2.9788045949636584e-16 5.454833451380461e-17
lhumerus -29.70455877763393 0.07074912409369327 80.71986813717447
lradius 34.13503965949603
lwrist 11.559444187548003
lhand -30.942974085328867 18.73993741449696
lfingers 7.125020000000001
lthumb -4.101460369966269 49.22413362577398
rclavicle 3.072102721199699e-16 6.085349832732232e-17
rhumerus -36.88684651187959 -22.59409450005701 -76.41169962749728
rradius 28.219328964459887
rwrist 3.9424210374037845
rhand -17.78595484130688 23.409551604738272
rfingers 7.125020000000001
rthumb 8.481158485816087 -6.532107363832895
45
root 0.3783954012957134 17.33101900960239 10.834102171042593 -3.88439446078966 0.15801925867627237 -2.712335218677879
lfemur -1.1890518611447485 -0.38958150715774953 -19.25748071001671
ltibia 42.33060374959657
lfoot -5.648312915981761 -6.171140195880488
ltoes -13.548944803339499
rfemur -27.385728100330727 3.148819893517805 26.160041395944884
rtibia 25.163883525245645
rfoot -4.060781223485595 -10.219948531749294
rtoes 5.895662047445716
lowerback 12.718914625605798 -0.562770296165497 -0.27460534105344037
upperback -0.10339881615522596 -0.5730803403018336 2.1418822028612032
thorax -6.537504946567433 -0.24780710596099423 3.3146128358118885
lowerneck -17.139795241958694 -2.8732220612749364 -2.0070565319837805
upperneck 20.677839114784778 -3.5513763416361317 0.8607258124574572
head 9.370948964211934 -1.747192868117963 0.19219789722177974
lclavicle 2.9703195331508684e-16 5.393145438961081e-17
lhumerus -30.330988913913167 0.2764440642691599 80.6257148685407
lradius 34.416861255234366
lwrist 11.362158720153602
lhand -31.480684158930117 17.546277649435986
lfingers 7.125020000000001
lthumb -4.4555307617897775 48.52813630649133
rclavicle 3.0808050128425385e-16 6.138108142751498e-17
rhumerus -37.760777906835536 -23.819661127408843 -75.10473216861244
rradius 26.850142820897045
rwrist 4.928648464100844
rhand -17.914382517895763 23.34492654699306
rfingers 7.125020000000001
rthumb 8.322424567740946 -6.594532459739916
46
root 0.3339283156533543 17.69212687355925 13.102012598461727 -3.640580864601387 0.052461797573993774 -3.8278075934440334
lfemur -3.5672359473781805 -1.2154897102076554 -17.650288032662154
ltibia 47.33799540475731
lfoot -5.542407864402946 -7.30183742701387
ltoes -19.414173503086296
rfemur -24.886423726192046 2.6144277601324912 28.347898503033303
rtibia 27.316605357469946
rfoot -3.8315744873557325 -9.082668158587518
rtoes 7.543053010468983
lowerback 12.240902773208779 -0.5311183596032785 0.7558735742962763
upperback 0.04912710638002446 -0.33540120463879763 2.364205173537174
thorax -6.473613749878599 -0.12606658263051543 3.043674628113582
lowerneck -17.17784915418341 -2.7904009466252138 -1.9176659025360865
upperneck 20.802705675102743 -3.402473223253147 0.5378223180205594
head 9.384277460598478 -1.7079595124960543 0.12514112246091574
lclavicle 2.970048094564532e-16 5.3901752706438523e-17
lhumerus -31.14788734374348 0.6494136640460808 80.49613036561111
lradius 34.43985475872606
lwrist 10.99305268366482
lhand -31.653350680157473 17.06699098098678
lfingers 7.125020000000001
lthumb -4.563086585423186 48.26109647680662
rclavicle 3.0724902044022037e-16 6.072661441841287e-17
rhumerus -38.57528139974126 -25.096270331503682 -73.68642134704007
rradius 25.349921143458026
rwrist 6.1317993089050375
rhand -18.030502637078037 23.15556437655781
rfingers 7.125020000000001
rthumb 8.200931047696152 -6.770643145940173
47
root 0.2900509134098948 17.84892711943347 10.485205361045637 -3.3599729747169675 0.6374758205248033 -4.780469374612446
lfemur -6.075313336047888 -2.0978705106806306 -15.818469304950577
ltibia 51.80226645364253
lfoot -5.204125633388825 -9.01165157154498
ltoes -25.02620516149038
rfemur -22.225923835786986 2.55801899043965 29.781089959748556
rtibia 28.291661180843242
rfoot -4.329199818475361 -8.19447071891517
rtoes 9.568331368007154
lowerback 11.611512993274541 -0.7407890678886041 1.768991275393696
upperback 0.024902544536782326 -0.41682648785216636 2.5890256886033503
thorax -6.539793278235338 -0.16506780549711594 2.7542304815039094
lowerneck -17.19865820444392 -2.7125281123103537 -1.8431364621051294
upperneck 21.099474830517785 -3.260887092200335 0.18339410125582423
head 9.462613600381506 -1.682186719061121 0.057775742487922804
lclavicle 2.971074369086916e-16 5.3975491035558414e-17
lhumerus -31.9154642735242 1.0694398119131368 80.41962151644611
lradius 34.21520449235345
lwrist 10.477131225965998
lhand -31.424285198386222 17.256005965312646
lfingers 7.125020000000001
lthumb -4.291723447001968 48.54598059120569
rclavicle 3.0607672792050934e-16 5.994692282801576e-17
rhumerus -39.17033861595446 -26.179955570895515 -72.35709772264649
rradius 23.900603584696306
rwrist 7.459094349367238
rhand -18.077758773038653 22.950870881921727
rfingers 7.125020000000001
rthumb 8.15147598647339 -6.978939724637454
